<?xml version="1.0" encoding="utf-8"?>
<!-- Generator: Adobe Illustrator 22.0.1, SVG Export Plug-In . SVG Version: 6.00 Build 0)  -->
<svg width="98px" version="1.1" id="레이어_1" xmlns="http://www.w3.org/2000/svg" xmlns:xlink="http://www.w3.org/1999/xlink" x="0px"
	 y="0px" viewBox="0 0 200 200" style="enable-background:new 0 0 200 200;" xml:space="preserve">
<style type="text/css">
	.st0{fill:#101A3A;}
</style>
<g>
	<path class="st0" d="M20.7,51.1v56.1c0,18.8,7.8,27.6,19.8,27.6c12.7,0,20.3-8.7,20.3-27.6V51h17.6v55c0,29.7-15.2,42.9-38.5,42.9
		c-22.2,0-36.7-12.5-36.7-42.8V51.1H20.7z"/>
	<path class="st0" d="M92,137.6l49.3-71.5v-0.5H96.3V51.1H164v10.3l-48.6,70.9v0.5h49.3v14.6H92V137.6z"/>
	<path class="st0" d="M196.9,51.1v96.3h-17.6V51L196.9,51.1L196.9,51.1z"/>
</g>
</svg>
